<svg width="109" height="21" viewBox="0 0 109 21" fill="none" xmlns="http://www.w3.org/2000/svg">
<path d="M38.971 0.659C41.033 0.659 41.984 1.029 42.566 1.769C43.412 2.879 43.888 5.099 42.513 10.544C41.138 15.989 39.606 18.157 38.178 19.32C37.226 20.06 36.063 20.43 34.002 20.43H27.394C25.332 20.43 24.328 20.06 23.799 19.32C22.953 18.21 22.477 15.99 23.905 10.544C25.279 5.099 26.865 2.932 28.293 1.769C29.245 1.029 30.408 0.659 32.469 0.659H38.971ZM29.35 15.619C29.456 15.778 29.72 15.831 30.566 15.831H33.103C33.949 15.831 34.266 15.778 34.478 15.619C34.742 15.408 35.218 14.879 36.275 10.544C37.385 6.209 37.174 5.681 37.015 5.469C36.909 5.31 36.645 5.258 35.799 5.258H33.314C32.468 5.258 32.151 5.311 31.94 5.469C31.676 5.68 31.2 6.209 30.143 10.544C28.98 14.932 29.191 15.408 29.35 15.619ZM54.989 14.033C54.778 13.769 54.566 13.663 53.297 13.663H50.812C50.6764 13.6678 50.5462 13.717 50.4412 13.803C50.3363 13.889 50.2624 14.007 50.231 14.139L48.804 19.954C48.7725 20.0861 48.6985 20.2043 48.5934 20.2903C48.4882 20.3763 48.3578 20.4254 48.222 20.43H43.094C42.83 20.43 42.671 20.218 42.724 19.954L47.429 1.134C47.4605 1.00186 47.5345 0.88371 47.6396 0.797713C47.7448 0.711716 47.8752 0.66263 48.011 0.658H60.064C62.02 0.658 63.077 0.922 63.659 1.662C64.293 2.561 64.505 3.512 63.818 6.261C62.919 9.962 61.545 11.019 59.166 11.495V11.548C61.016 12.024 62.021 12.658 61.386 15.513L60.593 19.901C60.54 20.165 60.276 20.43 60.012 20.43H54.778C54.566 20.43 54.355 20.271 54.408 20.007L55.095 16.042C55.306 14.615 55.201 14.35 54.989 14.033ZM54.619 9.381C55.729 9.381 56.046 9.328 56.258 9.17C56.628 8.906 56.892 8.43 57.157 7.267C57.422 6.104 57.369 5.681 57.157 5.417C56.998 5.258 56.734 5.206 55.624 5.206H52.875C52.7394 5.21084 52.6092 5.26003 52.5042 5.34601C52.3993 5.43199 52.3254 5.55002 52.294 5.682L51.5 8.958C51.447 9.222 51.606 9.434 51.87 9.434H54.619V9.381ZM80.47 0.5C82.585 0.5 83.695 0.764 84.329 1.504C85.069 2.403 85.333 3.777 84.752 6.843C84.7205 6.97514 84.6465 7.09329 84.5414 7.17929C84.4362 7.26528 84.3058 7.31437 84.17 7.319H79.254C78.99 7.319 78.831 7.108 78.884 6.896C79.096 5.68 78.831 5.522 78.672 5.31C78.566 5.151 78.355 5.099 77.456 5.099H74.919C74.02 5.099 73.756 5.152 73.545 5.31C73.228 5.574 72.646 6.473 71.695 10.491C70.744 14.509 70.902 15.46 71.061 15.725C71.167 15.884 71.431 15.936 72.33 15.936H75.026C75.819 15.936 76.136 15.883 76.348 15.725C76.612 15.514 77.141 14.985 77.458 13.557L77.511 13.398H73.705C73.441 13.398 73.282 13.187 73.335 12.922L74.075 9.75C74.1065 9.61786 74.1805 9.49971 74.2856 9.41371C74.3908 9.32771 74.5212 9.27863 74.657 9.274H83.8C84.064 9.274 84.223 9.485 84.17 9.75L83.694 11.706C82.584 16.517 81.262 18.208 79.888 19.318C78.884 20.164 77.456 20.481 75.606 20.481H68.998C66.936 20.481 65.932 20.111 65.35 19.318C64.451 18.155 63.976 15.988 65.297 10.49C66.618 4.992 68.152 2.772 69.579 1.662C70.531 0.87 71.694 0.5 73.756 0.5H80.47ZM101.087 20.483H85.281C85.017 20.483 84.858 20.271 84.911 20.007L89.351 0.976C89.3825 0.843859 89.4565 0.72571 89.5616 0.639713C89.6668 0.553716 89.7972 0.50463 89.933 0.5H108.329C108.647 0.5 108.805 0.817 108.594 1.134C107.801 2.403 104.735 5.099 101.298 5.099H94.902C94.7664 5.10384 94.6362 5.15303 94.5312 5.23901C94.4263 5.32499 94.3524 5.44302 94.321 5.575L93.845 7.69C93.792 7.954 93.951 8.166 94.215 8.166H102.831C103.096 8.166 103.254 8.377 103.202 8.642L102.461 11.972C102.43 12.104 102.356 12.222 102.251 12.308C102.146 12.394 102.016 12.4432 101.88 12.448H93.263C93.1272 12.4526 92.9968 12.5017 92.8916 12.5877C92.7865 12.6737 92.7125 12.7919 92.681 12.924L92.099 15.356C92.046 15.62 92.205 15.832 92.469 15.832H102.143C102.408 15.832 102.566 16.043 102.513 16.308L101.667 19.956C101.615 20.273 101.35 20.485 101.086 20.485L101.087 20.483ZM25.121 0.659H3.446C3.31024 0.66363 3.17976 0.712716 3.07461 0.798713C2.96946 0.88471 2.89547 1.00286 2.864 1.135L2.335 3.038C2.282 3.249 2.388 3.408 2.546 3.514C3.392 3.778 7.938 3.884 7.251 6.422L7.092 7.109L5.242 14.034L5.083 14.721C4.396 17.258 1.964 17.364 0.959997 17.629C0.748997 17.682 0.589997 17.893 0.536997 18.105L0.00999683 20.007C-0.0430032 20.271 0.115997 20.483 0.379997 20.483H9.208C9.34375 20.4784 9.47423 20.4293 9.57938 20.3433C9.68453 20.2573 9.75853 20.1391 9.79 20.007L11.376 13.875C11.4075 13.7429 11.4815 13.6247 11.5866 13.5387C11.6918 13.4527 11.8222 13.4036 11.958 13.399H17.615C17.7506 13.3942 17.8808 13.345 17.9858 13.259C18.0907 13.173 18.1646 13.055 18.196 12.923L19.042 9.645C19.095 9.381 18.936 9.169 18.672 9.169H13.016C12.752 9.169 12.593 8.958 12.646 8.693L13.439 5.733C13.4705 5.60086 13.5445 5.48271 13.6496 5.39671C13.7548 5.31072 13.8852 5.26163 14.021 5.257H22.532C22.6676 5.25216 22.7978 5.20297 22.9028 5.11699C23.0077 5.03101 23.0816 4.91298 23.113 4.781L25.386 1.186C25.492 0.869 25.386 0.657 25.122 0.657L25.121 0.659Z" fill="black"/>
</svg>
